<svg width="1489" height="309" viewBox="0 0 1489 309" fill="none" xmlns="http://www.w3.org/2000/svg">
<g clip-path="url(#clip0_37_45)">
<g clip-path="url(#clip1_37_45)">
<path d="M496.406 257.5H543.656L465.969 49.3672H417.849L339.582 257.5H383.933L399.876 212.859H480.753L496.406 257.5ZM440.75 97.4871L468.578 177.784H412.341L440.75 97.4871Z" fill="black"/>
<path d="M212.643 257.5V183.871H240.182L287.143 257.5H339.61L285.983 177.204C315.551 167.348 332.943 145.027 332.943 116.909C332.943 73.717 302.506 49.3672 250.038 49.3672H168.582V257.5H212.643ZM212.643 85.892H248.009C274.677 85.892 288.882 96.3276 288.882 116.909C288.882 137.201 274.677 147.636 248.009 147.636H212.643V85.892Z" fill="black"/>
<path d="M626.155 257.5V89.0806H691.958V49.3672H516.582V89.0806H582.094V257.5H626.155Z" fill="black"/>
<path d="M789.192 191.015C781.726 182.907 778.408 178.439 778.408 172.317C778.408 165.533 783.22 160.734 789.69 160.734C796.492 160.734 801.303 164.871 802.133 172.648H823.535C823.369 154.446 809.93 142.367 789.69 142.367C769.615 142.367 754.683 154.943 754.683 172.151C754.683 178.936 756.675 184.892 760.822 190.684C748.213 197.799 740.582 208.389 740.582 220.964C740.582 243.137 756.509 257.367 781.395 257.367C792.344 257.367 802.465 253.231 811.423 245.454L821.212 255.878H849.582L824.696 229.072C829.673 219.806 832.991 208.389 833.157 198.461H812.087C811.921 203.756 811.423 209.051 810.428 213.849L789.192 191.015ZM762.647 219.64C762.647 212.856 766.463 207.396 772.602 204.252L799.644 232.878C794.999 236.684 789.192 238.669 783.054 238.669C769.615 238.669 762.647 230.231 762.647 219.64Z" fill="black"/>
<path d="M1055.41 259.5H1102.66L1024.97 51.3672H976.849L898.582 259.5H942.933L958.876 214.859H1039.75L1055.41 259.5ZM999.75 99.4871L1027.58 179.784H971.341L999.75 99.4871Z" fill="black"/>
<path d="M1166.72 259.5V185.871H1194.26L1241.22 259.5H1293.68L1240.06 179.204C1269.63 169.348 1287.02 147.027 1287.02 118.909C1287.02 75.717 1256.58 51.3672 1204.11 51.3672H1122.66V259.5H1166.72ZM1166.72 87.892H1202.08C1228.75 87.892 1242.96 98.3276 1242.96 118.909C1242.96 139.201 1228.75 149.636 1202.08 149.636H1166.72V87.892Z" fill="black"/>
<path d="M1423.26 259.5V91.0806H1489.06V51.3672H1313.68V91.0806H1379.2V259.5H1423.26Z" fill="black"/>
<path d="M40.2572 233.889V168.613H65.0549L106.296 162.702C132.921 153.963 148.582 134.175 148.582 109.247C148.582 70.9547 121.175 49.3672 73.9293 49.3672H0.581604V233.889H40.2572ZM40.2572 81.7484H72.1021C96.1162 81.7484 108.907 91.0002 108.907 109.247C108.907 127.236 96.1162 136.488 72.1021 136.488H40.2572V81.7484Z" fill="black"/>
<path d="M40.17 75.9638L40.17 141.198L64.9132 141.198L106.064 147.105C132.63 155.838 148.256 175.614 148.256 200.526C148.256 238.794 120.91 260.367 73.7681 260.367L0.581604 260.367L0.581621 75.9638L40.17 75.9638ZM40.17 228.007L71.9449 228.007C95.9062 228.007 108.669 218.761 108.669 200.526C108.669 182.548 95.9062 173.302 71.9449 173.302L40.17 173.302L40.17 228.007Z" fill="black"/>
</g>
</g>
<defs>
<clipPath id="clip0_37_45">
<rect width="1488" height="307.44" fill="white" transform="translate(0.163208 0.734375)"/>
</clipPath>
<clipPath id="clip1_37_45">
<rect width="1487.91" height="211.44" fill="white" transform="translate(0.207653 48.7344)"/>
</clipPath>
</defs>
</svg>
