<svg width="1489" height="213" viewBox="0 0 1489 213" fill="none" xmlns="http://www.w3.org/2000/svg">
<g clip-path="url(#clip0_37_46)">
<path d="M496.406 209.5H543.656L465.969 1.36719H417.849L339.582 209.5H383.933L399.876 164.859H480.753L496.406 209.5ZM440.75 49.4871L468.578 129.784H412.341L440.75 49.4871Z" fill="white"/>
<path d="M212.643 209.5V135.871H240.182L287.143 209.5H339.61L285.983 129.204C315.551 119.348 332.943 97.0273 332.943 68.909C332.943 25.717 302.506 1.36719 250.038 1.36719H168.582V209.5H212.643ZM212.643 37.892H248.009C274.677 37.892 288.882 48.3276 288.882 68.909C288.882 89.2005 274.677 99.6359 248.009 99.6359H212.643V37.892Z" fill="white"/>
<path d="M626.155 209.5V41.0806H691.958V1.36719H516.582V41.0806H582.094V209.5H626.155Z" fill="white"/>
<path d="M789.192 143.015C781.726 134.907 778.408 130.439 778.408 124.317C778.408 117.533 783.22 112.734 789.69 112.734C796.492 112.734 801.303 116.871 802.133 124.648H823.535C823.369 106.446 809.93 94.3672 789.69 94.3672C769.615 94.3672 754.683 106.943 754.683 124.151C754.683 130.936 756.675 136.892 760.822 142.684C748.213 149.799 740.582 160.389 740.582 172.964C740.582 195.137 756.509 209.367 781.395 209.367C792.344 209.367 802.465 205.231 811.423 197.454L821.212 207.878H849.582L824.696 181.072C829.673 171.806 832.991 160.389 833.157 150.461H812.087C811.921 155.756 811.423 161.051 810.428 165.849L789.192 143.015ZM762.647 171.64C762.647 164.856 766.463 159.396 772.602 156.252L799.644 184.878C794.999 188.684 789.192 190.669 783.054 190.669C769.615 190.669 762.647 182.231 762.647 171.64Z" fill="white"/>
<path d="M1055.41 211.5H1102.66L1024.97 3.36719H976.849L898.582 211.5H942.933L958.876 166.859H1039.75L1055.41 211.5ZM999.75 51.4871L1027.58 131.784H971.341L999.75 51.4871Z" fill="white"/>
<path d="M1166.72 211.5V137.871H1194.26L1241.22 211.5H1293.68L1240.06 131.204C1269.63 121.348 1287.02 99.0273 1287.02 70.909C1287.02 27.717 1256.58 3.36719 1204.11 3.36719H1122.66V211.5H1166.72ZM1166.72 39.892H1202.08C1228.75 39.892 1242.96 50.3276 1242.96 70.909C1242.96 91.2005 1228.75 101.636 1202.08 101.636H1166.72V39.892Z" fill="white"/>
<path d="M1423.26 211.5V43.0806H1489.06V3.36719H1313.68V43.0806H1379.2V211.5H1423.26Z" fill="white"/>
<path d="M40.2572 185.889V120.613H65.0549L106.296 114.702C132.921 105.963 148.582 86.1751 148.582 61.2467C148.582 22.9547 121.175 1.36719 73.9293 1.36719H0.581604V185.889H40.2572ZM40.2572 33.7484H72.1021C96.1162 33.7484 108.907 43.0002 108.907 61.2467C108.907 79.2362 96.1162 88.4878 72.1021 88.4878H40.2572V33.7484Z" fill="white"/>
<path d="M40.17 27.9638L40.17 93.1982L64.9132 93.1982L106.064 99.1053C132.63 107.838 148.256 127.614 148.256 152.526C148.256 190.794 120.91 212.367 73.7681 212.367L0.581604 212.367L0.581621 27.9638L40.17 27.9638ZM40.17 180.007L71.9449 180.007C95.9062 180.007 108.669 170.761 108.669 152.526C108.669 134.548 95.9062 125.302 71.9449 125.302L40.17 125.302L40.17 180.007Z" fill="white"/>
</g>
<defs>
<clipPath id="clip0_37_46">
<rect width="1487.91" height="211.44" fill="white" transform="translate(0.207653 0.734375)"/>
</clipPath>
</defs>
</svg>
