<svg width="266" height="25" viewBox="0 0 266 25" fill="none" xmlns="http://www.w3.org/2000/svg">
<path d="M4.79794 18H3.38991L7.46236 6.90909H8.84872L12.9212 18H11.5131L8.19886 8.66371H8.11222L4.79794 18ZM5.31783 13.6676H10.9933V14.859H5.31783V13.6676ZM14.6487 18V6.90909H18.3962C19.2627 6.90909 19.9739 7.05711 20.5299 7.35316C21.0859 7.6456 21.4975 8.04815 21.7646 8.56081C22.0318 9.07348 22.1654 9.65655 22.1654 10.31C22.1654 10.9635 22.0318 11.5429 21.7646 12.0484C21.4975 12.5538 21.0877 12.951 20.5353 13.2398C19.983 13.525 19.2771 13.6676 18.4179 13.6676H15.3852V12.4545H18.3746C18.9666 12.4545 19.4432 12.3679 19.8042 12.1946C20.1689 12.0213 20.4324 11.7758 20.5949 11.4581C20.761 11.1368 20.844 10.7541 20.844 10.31C20.844 9.86594 20.761 9.47783 20.5949 9.14569C20.4288 8.81354 20.1635 8.5572 19.7988 8.37669C19.4342 8.19256 18.9522 8.1005 18.3529 8.1005H15.9917V18H14.6487ZM19.8692 13.0178L22.5986 18H21.039L18.3529 13.0178H19.8692ZM23.7968 8.1005V6.90909H32.115V8.1005H28.6274V18H27.2844V8.1005H23.7968ZM36.6342 18.1516C35.9049 18.1516 35.2767 18.0181 34.7496 17.7509C34.2225 17.4837 33.8164 17.1173 33.5311 16.6515C33.2459 16.1858 33.1033 15.6533 33.1033 15.054C33.1033 14.5919 33.2008 14.1821 33.3958 13.8247C33.5943 13.4636 33.8669 13.1297 34.2135 12.8228C34.5637 12.5123 34.9662 12.2018 35.4211 11.8913L37.0241 10.6999C37.3382 10.4941 37.5891 10.2739 37.7769 10.0392C37.9682 9.80457 38.0639 9.49769 38.0639 9.11861C38.0639 8.837 37.9393 8.56442 37.6902 8.30087C37.4447 8.03732 37.1216 7.90554 36.7209 7.90554C36.4393 7.90554 36.1901 7.97775 35.9735 8.12216C35.7605 8.26296 35.5926 8.44348 35.4699 8.66371C35.3507 8.88033 35.2912 9.10417 35.2912 9.33523C35.2912 9.59517 35.3616 9.85872 35.5024 10.1259C35.6468 10.3894 35.8291 10.6602 36.0493 10.9382C36.2732 11.2126 36.5042 11.4942 36.7425 11.783L41.8331 18H40.2951L36.0927 12.9311C35.7027 12.4618 35.3489 12.0357 35.0312 11.6531C34.7135 11.2704 34.4608 10.8931 34.2731 10.5212C34.0853 10.1494 33.9915 9.7468 33.9915 9.31356C33.9915 8.81534 34.1016 8.37849 34.3218 8.00302C34.5456 7.62393 34.8579 7.32969 35.2587 7.12029C35.663 6.90729 36.136 6.80078 36.6775 6.80078C37.2335 6.80078 37.7119 6.90909 38.1126 7.12571C38.5134 7.33872 38.8221 7.62213 39.0387 7.97594C39.2553 8.32614 39.3636 8.70703 39.3636 9.11861C39.3636 9.64932 39.2318 10.1096 38.9683 10.4996C38.7047 10.8895 38.3455 11.2523 37.8906 11.5881L35.6811 13.2344C35.1829 13.6026 34.8453 13.96 34.6684 14.3066C34.4915 14.6532 34.403 14.9023 34.403 15.054C34.403 15.4006 34.4933 15.7237 34.6738 16.0233C34.8543 16.323 35.1088 16.5649 35.4374 16.749C35.7659 16.9331 36.1504 17.0252 36.5909 17.0252C37.0097 17.0252 37.4177 16.9368 37.8148 16.7599C38.2119 16.5793 38.5711 16.3194 38.8925 15.98C39.2174 15.6407 39.4737 15.2327 39.6615 14.7561C39.8528 14.2796 39.9485 13.7434 39.9485 13.1477H41.1832C41.1832 13.8842 41.0984 14.4854 40.9287 14.9511C40.759 15.4168 40.5677 15.7815 40.3546 16.045C40.1416 16.3086 39.9701 16.5053 39.8402 16.6353C39.7969 16.6895 39.7571 16.7436 39.721 16.7978C39.6849 16.8519 39.6452 16.9061 39.6019 16.9602C39.2445 17.361 38.7932 17.6606 38.248 17.8592C37.7029 18.0542 37.1649 18.1516 36.6342 18.1516ZM43.4212 18V6.90909H47.2987C48.0713 6.90909 48.7085 7.04267 49.2103 7.30984C49.7122 7.57339 50.0858 7.92901 50.3313 8.37669C50.5768 8.82076 50.6996 9.31356 50.6996 9.85511C50.6996 10.3317 50.6147 10.7252 50.445 11.0357C50.279 11.3462 50.0587 11.5917 49.7844 11.7722C49.5136 11.9527 49.2193 12.0863 48.9016 12.1729V12.2812C49.241 12.3029 49.5822 12.4221 49.9252 12.6387C50.2681 12.8553 50.5552 13.1658 50.7862 13.5701C51.0173 13.9745 51.1328 14.4691 51.1328 15.054C51.1328 15.61 51.0065 16.11 50.7537 16.5541C50.501 16.9981 50.1021 17.3501 49.5569 17.6101C49.0117 17.87 48.3023 18 47.4286 18H43.4212ZM44.7642 16.8086H47.4286C48.3059 16.8086 48.9287 16.6389 49.297 16.2995C49.6688 15.9566 49.8548 15.5414 49.8548 15.054C49.8548 14.6785 49.7591 14.3319 49.5677 14.0142C49.3764 13.6929 49.1038 13.4366 48.75 13.2452C48.3962 13.0502 47.9774 12.9528 47.4936 12.9528H44.7642V16.8086ZM44.7642 11.783H47.2553C47.6597 11.783 48.0243 11.7036 48.3493 11.5447C48.6778 11.3859 48.9377 11.162 49.1291 10.8732C49.324 10.5844 49.4215 10.245 49.4215 9.85511C49.4215 9.36772 49.2518 8.95434 48.9125 8.61497C48.5731 8.27199 48.0352 8.1005 47.2987 8.1005H44.7642V11.783ZM53.3396 18V6.90909H57.0871C57.9536 6.90909 58.6648 7.05711 59.2208 7.35316C59.7768 7.6456 60.1884 8.04815 60.4556 8.56081C60.7227 9.07348 60.8563 9.65655 60.8563 10.31C60.8563 10.9635 60.7227 11.5429 60.4556 12.0484C60.1884 12.5538 59.7786 12.951 59.2263 13.2398C58.6739 13.525 57.9681 13.6676 57.1088 13.6676H54.0761V12.4545H57.0655C57.6576 12.4545 58.1341 12.3679 58.4952 12.1946C58.8598 12.0213 59.1234 11.7758 59.2858 11.4581C59.4519 11.1368 59.5349 10.7541 59.5349 10.31C59.5349 9.86594 59.4519 9.47783 59.2858 9.14569C59.1197 8.81354 58.8544 8.5572 58.4897 8.37669C58.1251 8.19256 57.6431 8.1005 57.0438 8.1005H54.6827V18H53.3396ZM58.5601 13.0178L61.2896 18H59.7299L57.0438 13.0178H58.5601ZM63.5492 18H62.1411L66.2136 6.90909H67.5999L71.6724 18H70.2644L66.9501 8.66371H66.8634L63.5492 18ZM64.069 13.6676H69.7445V14.859H64.069V13.6676ZM71.4977 8.1005V6.90909H79.8159V8.1005H76.3283V18H74.9853V8.1005H71.4977Z" fill="black"/>
</svg>
